<svg xmlns="http://www.w3.org/2000/svg" viewBox="0 0 286.561 189.832" role="img" aria-label="Vibe Coding logo">
  <g>
    <g>
      <path d="m145.77 117.79c0-39.792-32.63-117.79-72.884-117.79s-72.886 77.998-72.886 117.79c0 39.787 32.633 72.046 72.886 72.046s72.884-32.27 72.884-72.05z" fill="#0a0a0a"/>
      <path d="m72.862 181.99c-19.745-2.327-36.288-9.702-47.887-21.716-11.607-12.01-18.151-28.6-18.136-48.92 0-1.119 0.919-2.029 2.056-2.029 1.134 0 2.053 0.91 2.053 2.029 0.015 19.474 6.194 34.907 17.006 46.11 10.815 11.204 26.381 18.24 45.393 20.49 1.131 0.13 1.935 1.146 1.799 2.259-0.123 1.031-1.01 1.791-2.038 1.791-0.084 0-0.167 0-0.246-0.01z" fill="#ffffff"/>
    </g>
    <g>
      <path d="m167.4 189.83c40.253 0 119.16-32.259 119.16-72.046 0-39.788-78.912-72.045-119.16-72.045-40.256 0-72.886 32.257-72.886 72.045-0.004 39.79 32.626 72.05 72.886 72.05z" fill="#0a0a0a"/>
      <path d="m102.44 117.76c2.351-19.519 9.813-35.865 21.969-47.331 12.148-11.468 28.937-17.938 49.492-17.928 1.134 0 2.053 0.91 2.053 2.032 0 1.126-0.919 2.032-2.053 2.032-19.704 0.01-35.312 6.121-46.65 16.806-11.333 10.689-18.455 26.078-20.726 44.868-0.136 1.116-1.157 1.911-2.285 1.779-1.046-0.121-1.814-1.002-1.814-2.012 0-0.09 0.01-0.17 0.01-0.25z" fill="#ffffff"/>
    </g>
    <path d="m93.991 116.78c0-19.338 7.926-36.829 20.746-49.509 4.621-4.563 9.873-8.495 15.616-11.665-0.277-0.624-0.557-1.245-0.837-1.864-0.282-0.618-0.571-1.239-0.859-1.854-23.12 12.615-38.78 36.944-38.78 64.892 0 22.976 10.211 45.027 26.822 58.613 0.56-0.424 1.11-0.856 1.649-1.296 0.542-0.436 1.081-0.875 1.608-1.328-1.95-1.563-3.449-4.733-5.223-6.485-12.82-12.67-20.749-30.16-20.749-49.5z" fill="#ffffff" stroke="#ffffff" stroke-width=".2556" stroke-linecap="round" stroke-linejoin="round"/>
  </g>
</svg>
